<?xml version="1.0" encoding="UTF-8" standalone="no" ?>
<!DOCTYPE svg PUBLIC "-//W3C//DTD SVG 1.1//EN" "http://www.w3.org/Graphics/SVG/1.1/DTD/svg11.dtd">
<svg xmlns="http://www.w3.org/2000/svg" xmlns:xlink="http://www.w3.org/1999/xlink" version="1.1" width="1080" height="1080" viewBox="0 0 1080 1080" xml:space="preserve">
<desc>Created with Fabric.js 4.2.0</desc>
<defs>
</defs>
<g transform="matrix(1 0 0 1 540 540)" id="000732d2-12df-45ac-ab54-47181340172c"  >
<rect style="stroke: none; stroke-width: 1; stroke-dasharray: none; stroke-linecap: butt; stroke-dashoffset: 0; stroke-linejoin: miter; stroke-miterlimit: 4; fill: rgb(255,255,255); fill-rule: nonzero; opacity: 1;" vector-effect="non-scaling-stroke"  x="-540" y="-540" rx="0" ry="0" width="1080" height="1080" />
</g>
<g transform="matrix(1 0 0 1 540 540)" id="84cc2892-6114-4955-a5b1-d6651df39ace"  >
</g>
<g transform="matrix(6.17 0 0 6.17 540 540)" id="0ae0c881-f60c-4809-8363-fdb703ffa1cd"  >
<circle style="stroke: rgb(0,0,0); stroke-width: 0; stroke-dasharray: none; stroke-linecap: butt; stroke-dashoffset: 0; stroke-linejoin: miter; stroke-miterlimit: 4; fill: rgb(101,101,101); fill-rule: nonzero; opacity: 1;" vector-effect="non-scaling-stroke"  cx="0" cy="0" r="35" />
</g>
<g transform="matrix(1 0 0 1 499.27 482.46)"  >
<path style="stroke: rgb(0,0,0); stroke-width: 100; stroke-dasharray: none; stroke-linecap: round; stroke-dashoffset: 0; stroke-linejoin: round; stroke-miterlimit: 10; fill: none; fill-rule: nonzero; opacity: 1;" vector-effect="non-scaling-stroke"  transform=" translate(-549.27, -532.46)" d="M 506.7132194563609 470.4860120488197 Q 506.7132194563609 470.5860120488197 506.04748425182066 470.5860120488197 Q 505.38174904728044 470.5860120488197 505.38174904728044 471.25174725335995 Q 505.38174904728044 471.9174824579002 506.7132194563609 470.5860120488197 Q 508.0446898654414 469.2545416397392 514.0363067063037 464.5943952079575 Q 520.0279235471659 459.93424877617576 525.3538051834878 456.6055727534745 Q 530.6796868198098 453.2768967307733 545.9915965242355 448.6167502989915 Q 561.3035062286613 443.95660386720976 566.6293878649833 442.62513345812926 Q 571.9552695013053 441.29366304904875 585.9357087966505 439.9621926399683 Q 599.9161480919956 438.6307222308878 615.8937930009616 445.2880742762902 Q 631.8714379099276 451.9454263216927 636.5315843417094 456.60557275347446 Q 641.1917307734911 461.2657191852562 645.1861420007326 475.9118936851417 Q 649.1805532279741 490.5580681850272 647.8490828188935 508.5329187076139 Q 646.5176124098131 526.5077692302006 642.5232011825715 534.4965916846836 Q 638.52878995533 542.4854141391666 631.8714379099276 553.1371774118105 Q 625.2140858645251 563.7889406844545 613.896587387341 571.1120279343972 Q 602.5790889101568 578.43511518434 595.256001660214 583.0952616161217 Q 587.9329144102712 587.7554080479034 573.2867399103857 595.7442305023865 Q 558.6405654105002 603.7330529568694 545.9915965242355 607.0617289795706 Q 533.3426276379708 610.3904050022718 526.6852755925684 610.3904050022718 Q 520.0279235471659 610.3904050022718 512.0391010926829 608.393199388651 Q 504.0502786381999 606.3959937750303 498.72439700187795 603.7330529568694 Q 493.3985153655559 601.0701121387084 486.0754281156132 594.4127600933059 Q 478.7523408656705 587.7554080479034 476.75513525204974 575.7721743661789 Q 474.757929638429 563.7889406844545 476.75513525204974 553.8029126163508 Q 478.7523408656705 543.816884548247 484.07822250199246 527.839239639281 Q 489.40410413831444 511.8615947303151 498.05866179733766 499.2126258440504 Q 506.7132194563609 486.56365695778567 511.37336588814264 482.56924573054414 Q 516.0335123199244 478.57483450330267 525.3538051834878 471.9174824579002 Q 534.6740980470513 465.2601304124977 538.6685092742928 462.5971895943367 Q 542.6629205015344 459.93424877617576 552.6489485696382 460.599983980716 Q 562.6349766377418 461.2657191852562 570.6237990922248 465.2601304124977 Q 578.6126215467077 469.2545416397392 585.2699735921102 473.9146880715209 Q 591.9273256375127 478.57483450330267 607.9049705464787 501.2098314576711 Q 623.8826154554447 523.8448284120395 634.5343787280887 546.479825366408 Q 645.1861420007326 569.1148223207765 647.1833476143534 575.1064391616387 Q 649.1805532279741 581.0980560025009 645.1861420007326 593.7470248887656 Q 641.1917307734911 606.3959937750303 629.8742322963069 616.3820218431341 Q 618.5567338191227 626.3680499112379 609.2364409555591 629.0309907293988 Q 599.9161480919956 631.6939315475597 579.2783567512479 634.3568723657207 Q 558.6405654105002 637.0198131838818 546.6573317287757 635.6883427748013 Q 534.6740980470513 634.3568723657208 515.3677771153841 627.0337851157781 Q 496.0614561837169 619.7106978658353 480.083811274751 606.3959937750303 Q 464.10616636578504 593.0812896842253 458.11454952492284 583.7609968206618 Q 452.1229326840606 574.4407039570984 449.4599918658996 553.1371774118105 Q 446.7970510477386 531.8336508665226 453.4544030931411 514.5245355484761 Q 460.1117551385436 497.2154202304297 464.7719015703253 491.2238033895674 Q 469.432048002107 485.23218654870516 482.74675209291195 473.9146880715209 Q 496.0614561837169 462.5971895943367 503.3845434336597 459.2685135716355 Q 510.7076306836024 455.93983754893424 524.0223347744073 453.94263193531344 Q 537.3370388652123 451.9454263216927 550.6517429560173 457.27130795801475 Q 563.9664470468223 462.5971895943367 569.9580638876846 469.92027684427944 Q 575.9496807285468 477.2433640942222 588.5986496148115 498.54689063951014 Q 601.2476185010762 519.8504171847981 605.2420297283177 541.8196789346263 Q 609.2364409555591 563.7889406844545 604.5762945237774 570.446292729857 Q 599.9161480919956 577.1036447752595 591.2615904329724 588.4211432524437 Q 582.6070327739492 599.738641729628 567.2951230695235 606.3959937750304 Q 551.9832133650978 613.0533458204329 541.3314500924538 613.0533458204329 Q 530.6796868198098 613.0533458204329 510.70763068360236 609.7246697977316 Q 490.73557454739495 606.3959937750303 482.0810168883718 602.4015825477888 Q 473.42645922934855 598.4071713205474 461.443225547624 587.0896728433631 Q 449.45999186589955 575.7721743661789 447.4627862522788 559.1287942526727 Q 445.4655806386581 542.4854141391666 445.4655806386581 533.165121275603 Q 445.4655806386581 523.8448284120395 458.11454952492284 501.2098314576711 Q 470.76351841118753 478.57483450330267 487.4068985246937 463.26292479887695 Q 504.0502786381999 447.95101509445124 512.0391010926829 443.95660386720976 Q 520.0279235471659 439.9621926399683 532.6768924334306 438.6307222308878 Q 545.3258613196954 437.2992518218073 559.9720358195808 443.29086866266954 Q 574.6182103194662 449.2824855035318 581.2755623648687 454.6083671398538 Q 587.9329144102712 459.93424877617576 603.9105593192371 484.56645134416493 Q 619.8882042282031 509.1986539121541 619.8882042282031 523.8448284120395 Q 619.8882042282031 538.4910029119251 614.5623225918812 561.1259998662936 Q 609.2364409555591 583.760996820662 596.5874720692944 598.4071713205474 Q 583.9385031830298 613.0533458204329 576.615415933087 618.3792274567548 Q 569.2923286831442 623.7051090930768 549.3202725469368 629.696725933939 Q 529.3482164107294 635.6883427748013 510.0418954790622 634.3568723657208 Q 490.73557454739495 633.0254019566403 484.7439577065327 630.3624611384794 Q 478.7523408656705 627.6995203203184 469.432048002107 618.3792274567548 Q 460.1117551385436 609.0589345931913 459.4460199340033 588.4211432524437 Q 458.780284729463 567.783351911696 462.77469595670453 555.1343830254312 Q 466.76910718394606 542.4854141391666 482.746752092912 515.1902707530164 Q 498.72439700187795 487.8951273668662 508.7104250699817 475.2461584806015 Q 518.6964531380854 462.5971895943367 535.3398332515916 451.9454263216927 Q 551.9832133650978 441.29366304904875 564.6321822513625 437.9649870263475 Q 577.2811511376271 434.63631100364626 582.6070327739492 436.633516617267 Q 587.9329144102712 438.6307222308878 597.2532072738347 447.285279889911 Q 606.5735001373981 455.93983754893424 613.2308521828006 475.91189368514165 Q 619.8882042282031 495.8839498213491 617.2252634100421 508.5329187076139 Q 614.5623225918812 521.1818875938786 608.570705751019 538.4910029119251 Q 602.5790889101568 555.8001182299715 597.918942478375 561.7917350708337 Q 593.2587960465933 567.783351911696 574.6182103194662 576.4379095707192 Q 555.9776245923393 585.0924672297424 537.3370388652124 585.7582024342827 Q 518.6964531380854 586.423937638823 507.3789546609012 582.4295264115815 Q 496.0614561837169 578.43511518434 485.40969291107297 569.1148223207765 Q 474.757929638429 559.794529457213 470.09778320664725 544.4826197527873 Q 465.4376367748655 529.1707100483616 466.769107183946 515.8560059575566 Q 468.1005775930265 502.5413018667516 477.42087045659 475.2461584806014 Q 486.7411633201535 447.95101509445124 505.38174904728044 425.98175334462303 Q 524.0223347744075 404.0124915947949 530.6796868198098 398.6866099584729 Q 537.3370388652123 393.3607283221509 547.3230669333161 390.0320522994497 Q 557.3090950014198 386.70337627674843 560.6377710241211 387.36911148128866 Q 563.9664470468223 388.03484668582894 571.9552695013053 392.6949931176107 Q 579.9440919557883 397.3551395493924 584.60423838757 413.9985196628986 Q 589.2643848193518 430.6418997764048 591.2615904329725 445.9538094808305 Q 593.2587960465933 461.2657191852562 585.2699735921102 487.8951273668662 Q 577.2811511376271 514.5245355484761 563.9664470468222 527.839239639281 Q 550.6517429560173 541.153943730086 541.9971852969941 544.4826197527873 Q 533.3426276379708 547.8112957754885 508.0446898654414 552.4714422072702 Q 482.74675209291195 557.131588639052 473.4264592293485 558.4630590481324 Q 464.10616636578504 559.794529457213 452.7886678886008 555.1343830254312 Q 441.47116941141655 550.4742365936495 432.1508765478531 542.4854141391666 Q 422.83058368428965 534.4965916846835 421.49911327520914 530.502180457442 Q 420.16764286612863 526.5077692302006 424.8277892979104 507.20144829853336 Q 429.48793572969214 487.8951273668662 444.79984543411786 471.25174725335995 Q 460.1117551385436 454.6083671398537 467.4348423884863 449.28248550353175 Q 474.757929638429 443.95660386720976 490.73557454739495 437.2992518218073 Q 506.7132194563609 430.6418997764048 521.3593939562463 434.63631100364626 Q 536.0055684561319 438.6307222308878 543.3286557060746 441.95939825358903 Q 550.6517429560173 445.2880742762903 566.6293878649833 463.26292479887695 Q 582.6070327739492 481.2377753214637 585.2699735921102 495.2182146168089 Q 587.9329144102712 509.1986539121541 583.9385031830298 523.8448284120395 Q 579.9440919557883 538.4910029119251 570.6237990922248 548.4770309800288 Q 561.3035062286613 558.4630590481324 553.9804189787185 562.4574702753739 Q 546.6573317287758 566.4518815026154 529.3482164107294 570.4462927298569 Q 512.0391010926829 574.4407039570984 499.39013220641823 572.4434983434777 Q 486.7411633201535 570.446292729857 482.74675209291195 567.783351911696 Q 478.7523408656705 565.120411093535 472.094988820268 556.4658534345117 Q 465.4376367748655 547.8112957754885 464.10616636578504 540.4882085255458 Q 462.77469595670453 533.165121275603 466.76910718394606 513.8588003439359 Q 470.76351841118753 494.55247941226867 486.7411633201535 475.9118936851417 Q 502.7188082291194 457.27130795801475 509.3761602745219 450.61395591261225 Q 516.0335123199244 443.95660386720976 528.6824812061891 439.9621926399683 Q 541.3314500924538 435.9677814127268 551.9832133650978 436.63351661726705 Q 562.6349766377418 437.2992518218073 569.9580638876845 439.9621926399683 Q 577.2811511376271 442.6251334581293 589.2643848193517 457.937043162555 Q 601.2476185010762 473.2489528669807 615.8937930009616 499.8783610485906 Q 630.5399675008471 526.5077692302006 631.8714379099276 535.828062093764 Q 633.2029083190081 545.1483549573275 625.214085864525 559.794529457213 Q 617.2252634100421 574.4407039570984 610.5679113646396 582.4295264115815 Q 603.9105593192371 590.4183488660644 583.9385031830298 600.4043769341681 Q 563.9664470468223 610.3904050022718 541.3314500924539 611.7218754113524 Q 518.6964531380854 613.0533458204329 508.7104250699817 613.0533458204329 Q 498.72439700187795 613.0533458204329 487.4068985246937 606.3959937750304 Q 476.08940004750946 599.738641729628 468.76631279756674 584.4267320252022 Q 461.443225547624 569.1148223207765 460.7774903430838 557.131588639052 Q 460.1117551385436 545.1483549573275 466.76910718394606 521.8476227984188 Q 473.42645922934855 498.54689063951014 482.0810168883718 488.5608625714064 Q 490.73557454739495 478.57483450330267 506.0474842518206 465.2601304124977 Q 521.3593939562463 451.9454263216927 535.3398332515916 447.285279889911 Q 549.3202725469368 442.6251334581293 562.6349766377418 445.95380948083056 Q 575.9496807285468 449.2824855035318 585.2699735921103 455.274102344394 Q 594.5902664556737 461.2657191852562 615.8937930009618 486.56365695778567 Q 637.1973195462497 511.8615947303151 650.5120236370547 537.8252677073848 Q 663.8267277278595 563.7889406844545 671.8155501823426 589.7526136615242 Q 679.8043726368255 615.7162866385938 671.8155501823426 631.6939315475598 Q 663.8267277278595 647.6715764565258 657.169375682457 654.3289285019282 Q 650.5120236370547 660.9862805473307 629.8742322963069 668.3093677972734 Q 609.2364409555591 675.6324550472161 583.2727679784895 676.9639254562967 Q 557.3090950014198 678.2953958653773 547.3230669333161 676.2981902517565 Q 537.3370388652123 674.3009846381357 521.3593939562463 662.9834861609515 Q 505.38174904728044 651.6659876837673 498.72439700187795 643.6771652292844 Q 492.06704495647546 635.6883427748013 488.072633729234 609.7246697977316 Q 484.0782225019925 583.760996820662 492.06704495647546 549.8085013891093 Q 500.0558674109584 515.8560059575566 506.7132194563609 500.5440962531309 Q 513.3705715017634 485.23218654870516 530.0139516152697 467.2573360261185 Q 546.6573317287758 449.2824855035318 557.3090950014198 443.95660386720976 Q 567.9608582740638 438.6307222308878 571.9552695013053 438.6307222308878 Q 575.9496807285468 438.6307222308878 584.60423838757 443.2908686626695 Q 593.2587960465933 447.95101509445124 600.581883296536 454.6083671398537 Q 607.9049705464787 461.2657191852562 618.5567338191227 491.88953859410765 Q 629.2084970917666 522.5133580029591 633.2029083190082 561.1259998662936 Q 637.1973195462497 599.738641729628 632.5371731144679 609.0589345931913 Q 627.8770266826862 618.3792274567547 615.2280577964215 634.3568723657207 Q 602.5790889101568 650.3345172746867 579.9440919557883 656.9918693200892 Q 557.3090950014198 663.6492213654917 541.3314500924539 664.314956570032 Q 525.3538051834879 664.9806917745723 504.0502786381999 660.3205453427905 Q 482.74675209291195 655.6603989110088 465.4376367748655 642.3456948202038 Q 448.12852145681904 629.0309907293988 442.80263982049706 619.0449626612951 Q 437.4767581841751 609.0589345931913 436.81102297963486 581.7637912070411 Q 436.14528777509463 554.468647820891 442.8026398204971 539.8224733210055 Q 449.45999186589955 525.1762988211201 470.76351841118753 494.55247941226867 Q 492.06704495647546 463.92866000341724 512.0391010926829 445.9538094808305 Q 532.0111572288904 427.9789589582438 538.6685092742929 425.31601814008286 Q 545.3258613196954 422.65307732192184 556.6433597968796 423.98454773100235 Q 567.9608582740638 425.31601814008286 579.2783567512479 435.9677814127268 Q 590.5958552284321 446.6195446853708 597.2532072738346 453.9426319353135 Q 603.9105593192371 461.2657191852562 612.5651169782603 474.5804232760612 Q 621.2196746372836 487.8951273668662 639.8602603644106 525.1762988211201 Q 658.5008460915376 562.457470275374 663.8267277278595 591.749819275145 Q 669.1526093641814 621.0421682749159 658.5008460915375 635.022607570261 Q 647.8490828188935 649.0030468656063 642.5232011825716 655.6603989110088 Q 637.1973195462497 662.3177509564113 613.2308521828007 668.9751030018137 Q 589.2643848193518 675.6324550472161 563.9664470468223 674.966719842676 Q 538.6685092742928 674.3009846381357 526.6852755925684 669.6408382063539 Q 514.702041910844 664.9806917745723 496.061456183717 651.6659876837673 Q 477.42087045659 638.3512835929623 466.1033719794058 616.3820218431341 Q 454.78587350222153 594.4127600933059 454.78587350222153 579.1008503888802 Q 454.78587350222153 563.7889406844545 464.77190157032527 538.4910029119251 Q 474.757929638429 513.1930651393956 484.07822250199246 501.2098314576711 Q 493.3985153655559 489.22659777594663 505.3817490472804 476.57762888968193 Q 517.3649827290049 463.92866000341724 528.6824812061891 457.93704316255497 Q 539.9999796833733 451.9454263216927 544.6601261151551 451.9454263216927 Q 549.3202725469368 451.9454263216927 557.3090950014198 456.60557275347446 Q 565.2979174559027 461.2657191852562 576.615415933087 472.58321766244046 Q 587.9329144102712 483.9007161396247 594.5902664556737 493.8867442077284 Q 601.2476185010762 503.8727722758321 607.2392353419384 529.1707100483616 Q 613.2308521828006 554.468647820891 609.2364409555591 572.4434983434777 Q 605.2420297283177 590.4183488660644 599.9161480919956 596.4099657069266 Q 594.5902664556737 602.4015825477888 583.9385031830298 611.7218754113524 Q 573.2867399103858 621.0421682749159 564.6321822513626 622.3736386839963 Q 555.9776245923393 623.7051090930768 547.9888021378563 622.3736386839963 Q 539.9999796833733 621.0421682749159 534.6740980470513 618.3792274567548 Q 529.3482164107294 615.7162866385938 528.0167460016489 613.7190810249731 Q 526.6852755925684 611.7218754113524 526.6852755925684 607.7274641841109 Q 526.6852755925684 603.7330529568694 528.0167460016489 601.0701121387084 Q 529.3482164107294 598.4071713205474 532.0111572288904 595.0784952978462 L 534.7740980470513 591.649819275145" stroke-linecap="round" />
</g>
<g transform="matrix(1 0 0 1 476.07 444.72)"  >
<path style="stroke: rgb(211,31,10); stroke-width: 100; stroke-dasharray: none; stroke-linecap: round; stroke-dashoffset: 0; stroke-linejoin: round; stroke-miterlimit: 10; fill: none; fill-rule: nonzero; opacity: 1;" vector-effect="non-scaling-stroke"  transform=" translate(-526.07, -494.72)" d="M 418.7361724570481 447.8510150944512 Q 418.8361724570481 447.95101509445124 426.15925970699084 448.6167502989915 Q 433.4823469569336 449.2824855035318 439.4739637977958 449.94822070807203 Q 445.4655806386581 450.61395591261225 463.44043116124476 454.6083671398537 Q 481.4152816838315 458.6027783670952 498.72439700187795 461.93145438979644 Q 516.0335123199244 465.2601304124977 526.0195403880282 468.58880643519893 Q 536.0055684561319 471.9174824579002 551.9832133650978 479.9063049123832 Q 567.9608582740638 487.8951273668662 571.9552695013053 491.2238033895674 Q 575.9496807285468 494.55247941226867 581.2755623648687 498.54689063951014 Q 586.6014440011907 502.5413018667516 588.5986496148114 503.2070370712919 Q 590.5958552284321 503.8727722758321 590.5958552284321 504.53850748037235 Q 590.5958552284321 505.20424268491263 589.930120023892 505.20424268491263 Q 589.2643848193518 505.20424268491263 585.9357087966505 507.20144829853336 Q 582.6070327739492 509.1986539121541 568.626593478604 510.5301243212346 Q 554.6461541832588 511.8615947303151 536.0055684561319 511.19585952577484 Q 517.3649827290049 510.5301243212346 503.38454343365964 510.5301243212346 Q 489.40410413831444 510.5301243212346 460.1117551385435 507.20144829853336 Q 430.8194061387726 503.8727722758321 408.8501443889444 502.5413018667516 Q 386.88088263911624 501.20983145767116 380.22353059371375 500.5440962531309 Q 373.56617854831126 499.87836104859065 368.2402969119893 498.54689063951014 Q 362.9144152756673 497.2154202304297 364.2458856847478 496.5496850258894 Q 365.57735609382826 495.8839498213491 382.8864714118747 491.88953859410765 Q 400.19558672992116 487.8951273668662 410.1816147980249 487.2293921623259 Q 420.16764286612863 486.56365695778567 453.4544030931411 489.8923329804869 Q 486.7411633201535 493.22100900318816 518.0307179335451 501.20983145767116 Q 549.3202725469368 509.1986539121541 565.963652660443 515.8560059575566 Q 582.6070327739492 522.5133580029591 599.2504128874555 533.165121275603 Q 615.8937930009616 543.816884548247 622.5511450463641 555.1343830254311 Q 629.2084970917666 566.4518815026154 627.8770266826862 573.1092335480179 Q 626.5455562736056 579.7665855934204 618.5567338191227 591.0840840706046 Q 610.5679113646397 602.4015825477888 591.9273256375127 608.393199388651 Q 573.2867399103858 614.3848162295134 559.3063006150405 615.7162866385938 Q 545.3258613196954 617.0477570476744 522.0251291607867 615.0505514340537 Q 498.72439700187795 613.0533458204329 487.4068985246937 609.7246697977316 Q 476.08940004750946 606.3959937750303 454.78587350222153 595.7442305023864 Q 433.4823469569336 585.0924672297424 420.8333780706689 567.1176167071558 Q 408.18440918440416 549.142766184569 406.1872035707834 536.4937972983043 Q 404.1899979571627 523.8448284120395 410.8473500025651 489.22659777594663 Q 417.5047020479676 454.6083671398537 434.14808216147384 419.9901365037608 Q 450.79146227498006 385.3719058676679 462.1089607521643 374.72014259502396 Q 473.42645922934855 364.06837932238 487.40689852469376 354.08235125427626 Q 501.38733782003897 344.0963231861725 506.71321945636095 342.0991175725518 Q 512.0391010926829 340.10191195893105 522.6908643653269 343.4305879816323 Q 533.3426276379708 346.75926400433355 543.3286557060746 356.7452920724372 Q 553.3146837741783 366.73132014054096 561.3035062286613 378.71455382226543 Q 569.2923286831442 390.6977875039899 583.9385031830298 429.31042936732433 Q 598.5846776829152 467.9230712306587 601.9133537056164 497.21542023042963 Q 605.2420297283177 526.5077692302006 601.9133537056164 535.1623268892238 Q 598.5846776829152 543.816884548247 587.267179205731 557.131588639052 Q 575.9496807285468 570.446292729857 566.6293878649833 575.1064391616387 Q 557.3090950014198 579.7665855934204 541.3314500924539 581.7637912070411 Q 525.3538051834879 583.760996820662 504.7160138427402 578.43511518434 Q 484.0782225019925 573.109233548018 474.0921944338888 567.783351911696 Q 464.10616636578504 562.457470275374 452.7886678886008 545.1483549573275 Q 441.47116941141655 527.839239639281 439.4739637977958 502.5413018667516 Q 437.4767581841751 477.2433640942222 440.1396990023361 467.9230712306587 Q 442.8026398204971 458.6027783670952 454.1201382976813 443.95660386720976 Q 465.4376367748655 429.31042936732433 481.4152816838315 423.3188125264621 Q 497.39292659279744 417.32719568559986 506.0474842518207 416.66146048105963 Q 514.702041910844 415.99572527651935 534.6740980470513 423.9845477310023 Q 554.6461541832588 431.9733701854853 585.2699735921102 465.2601304124977 Q 615.8937930009616 498.54689063951014 631.8714379099276 524.5105636165798 Q 647.8490828188935 550.4742365936495 665.15819813694 582.4295264115815 Q 682.4673134549864 614.3848162295134 681.8015782504463 626.3680499112379 Q 681.135843045906 638.3512835929623 673.1470205914229 651.6659876837673 Q 665.15819813694 664.9806917745723 647.1833476143534 671.6380438199748 Q 629.2084970917666 678.2953958653773 612.5651169782604 678.2953958653773 Q 595.9217368647542 678.2953958653773 571.9552695013052 675.6324550472162 Q 547.9888021378563 672.9695142290552 524.0223347744073 664.9806917745723 Q 500.0558674109584 656.9918693200893 490.0698393428547 650.3345172746868 Q 480.083811274751 643.6771652292844 470.09778320664725 625.7023147066976 Q 460.1117551385436 607.7274641841109 460.1117551385436 596.4099657069266 Q 460.1117551385436 585.0924672297424 470.09778320664725 553.1371774118105 Q 480.083811274751 521.1818875938786 500.7216026154987 497.2154202304297 Q 521.3593939562463 473.2489528669807 531.34542202435 465.2601304124977 Q 541.3314500924538 457.27130795801475 556.6433597968796 453.9426319353135 Q 571.9552695013053 450.61395591261225 589.930120023892 458.6027783670952 Q 607.9049705464787 466.5916008215782 617.2252634100421 475.91189368514165 Q 626.5455562736056 485.23218654870516 652.5092292506753 522.5133580029591 Q 678.472902227745 559.794529457213 684.4645190686072 574.4407039570984 Q 690.4561359094694 589.0868784569839 687.7931950913085 609.7246697977316 Q 685.1302542731474 630.3624611384794 668.4868741596413 645.0086356383648 Q 651.843494046135 659.6548101382502 640.5259955689507 661.652015751871 Q 629.2084970917666 663.6492213654917 598.5846776829152 664.314956570032 Q 567.9608582740638 664.9806917745723 533.3426276379708 657.6576045246295 Q 498.72439700187795 650.3345172746867 485.40969291107297 643.011430024744 Q 472.094988820268 635.6883427748013 449.45999186589955 616.382021843134 Q 426.8249949115311 597.0757009114668 416.17323163888716 570.4462927298569 Q 405.5214683662432 543.816884548247 405.5214683662432 527.839239639281 Q 405.5214683662432 511.8615947303151 422.16484847974937 473.2489528669807 Q 438.8082285932556 434.63631100364626 458.780284729463 412.0013140492778 Q 478.7523408656705 389.3663170949094 486.0754281156132 384.0404354585874 Q 493.3985153655559 378.71455382226543 504.0502786381999 377.3830834131849 Q 514.702041910844 376.0516130041044 520.6936587517062 378.04881861772515 Q 526.6852755925684 380.04602423134594 539.334244478833 392.0292579130704 Q 551.9832133650978 404.0124915947949 570.6237990922248 426.6474885491633 Q 589.2643848193518 449.2824855035318 599.2504128874555 467.2573360261185 Q 609.2364409555591 485.23218654870516 621.2196746372836 523.8448284120395 Q 633.2029083190081 562.457470275374 629.8742322963069 583.760996820662 Q 626.5455562736056 605.0645233659499 619.8882042282031 613.0533458204329 Q 613.2308521828006 621.0421682749159 596.5874720692944 629.0309907293988 Q 579.9440919557883 637.0198131838818 570.6237990922248 639.0170187975025 Q 561.3035062286613 641.0142244111232 540.6657148879135 639.0170187975025 Q 520.0279235471659 637.0198131838818 500.7216026154987 628.3652555248585 Q 481.4152816838315 619.7106978658353 472.76072402480827 613.0533458204328 Q 464.10616636578504 606.3959937750303 455.4516087067618 589.0868784569839 Q 446.7970510477386 571.7777631389374 446.7970510477386 545.1483549573275 Q 446.7970510477386 518.5189467757176 450.79146227498006 505.20424268491263 Q 454.78587350222153 491.88953859410765 472.76072402480827 463.26292479887695 Q 490.73557454739495 434.63631100364626 508.04468986544146 417.3271956855998 Q 525.3538051834879 400.01808036755335 531.3454220243501 397.35513954939233 Q 537.3370388652123 394.6921987312314 548.6545373423966 395.3579339357716 Q 559.9720358195808 396.0236691403119 565.9636526604431 399.3523451630131 Q 571.9552695013053 402.68102118571437 590.5958552284322 415.99572527651935 Q 609.2364409555591 429.31042936732433 633.8686435235484 457.27130795801475 Q 658.5008460915376 485.23218654870516 674.4784910005035 511.19585952577484 Q 690.4561359094694 537.1595325028445 703.7708400002743 571.7777631389374 Q 717.0855440910793 606.3959937750303 709.0967216365964 630.3624611384793 Q 701.1078991821134 654.3289285019282 693.1190767276305 661.652015751871 Q 685.1302542731474 668.9751030018137 657.8351108869972 676.9639254562967 Q 630.5399675008471 684.9527479107796 616.5595282055019 685.6184831153199 Q 602.5790889101568 686.2842183198602 571.9552695013053 685.6184831153199 Q 541.3314500924538 684.9527479107796 506.7132194563609 673.6352494335954 Q 472.094988820268 662.3177509564113 458.1145495249228 653.663193297388 Q 444.1341102295776 645.0086356383647 422.83058368428965 623.0393738885366 Q 401.52705713900167 601.0701121387084 395.5354402981394 576.4379095707193 Q 389.5438234572772 551.8057070027301 393.53823468451867 540.4882085255458 Q 397.5326459117602 529.1707100483616 415.5074964343469 498.54689063951014 Q 433.4823469569336 467.9230712306587 458.1145495249228 445.2880742762903 Q 482.74675209291195 422.65307732192184 492.7327801610157 415.32999007197907 Q 502.7188082291194 408.00690282203635 518.0307179335451 403.34675639025465 Q 533.3426276379708 398.6866099584729 541.3314500924539 400.68381557209364 Q 549.3202725469368 402.68102118571437 565.2979174559027 414.66425486743884 Q 581.2755623648687 426.6474885491633 599.2504128874555 447.95101509445124 Q 617.2252634100421 469.2545416397392 624.5483506599849 485.23218654870516 Q 631.8714379099276 501.20983145767116 641.1917307734911 532.4993860710629 Q 650.5120236370547 563.7889406844545 640.5259955689509 588.4211432524437 Q 630.5399675008471 613.0533458204329 621.2196746372836 623.0393738885366 Q 611.8993817737202 633.0254019566403 587.267179205731 643.6771652292842 Q 562.6349766377418 654.3289285019282 526.0195403880282 657.6576045246295 Q 489.40410413831444 660.9862805473307 469.43204800210697 658.9890749337101 Q 449.45999186589955 656.9918693200893 410.18161479802495 646.3401060474453 Q 370.9032377301503 635.6883427748013 360.25147445750633 628.3652555248586 Q 349.5997111848623 621.0421682749159 335.6192718895171 605.0645233659499 Q 321.6388325941719 589.0868784569839 319.6416269805511 569.7805575253167 Q 317.6444213669304 550.4742365936495 322.3045677987121 536.4937972983043 Q 326.9647142304939 522.5133580029591 346.27103516216107 491.2238033895674 Q 365.57735609382826 459.93424877617576 399.52985152538093 432.6391053900256 Q 433.4823469569336 405.3439620038754 445.4655806386581 396.68940434485216 Q 457.44881432038255 388.03484668582894 474.0921944338887 383.3747002540472 Q 490.73557454739495 378.71455382226543 498.05866179733766 378.71455382226543 Q 505.38174904728044 378.71455382226543 520.6936587517062 381.37749464042645 Q 536.0055684561319 384.0404354585874 549.3202725469368 390.0320522994497 Q 562.6349766377418 396.0236691403119 568.626593478604 402.68102118571437 Q 574.6182103194662 409.33837323111686 587.9329144102712 425.3160181400828 Q 601.2476185010762 441.29366304904875 623.8826154554447 475.91189368514165 Q 646.5176124098131 510.5301243212346 651.843494046135 536.4937972983043 Q 657.169375682457 562.457470275374 667.1554037505607 590.4183488660644 Q 677.1414318186645 618.3792274567547 667.8211389551011 642.3456948202038 Q 658.5008460915376 666.3121621836527 651.1777588415948 674.3009846381358 Q 643.854671591652 682.2898070926187 622.5511450463641 689.6128943425614 Q 601.2476185010762 696.935981592504 587.267179205731 698.9331872061248 Q 573.2867399103858 700.9303928197456 539.9999796833733 698.9331872061248 Q 506.7132194563609 696.935981592504 477.42087045658997 687.6156887289407 Q 448.12852145681904 678.2953958653773 436.1452877750946 670.9723086154345 Q 424.1620540933701 663.6492213654917 404.18999795716263 634.3568723657208 Q 384.2179418209552 605.0645233659499 378.89206018463324 570.446292729857 Q 373.56617854831126 535.8280620937641 378.89206018463324 515.8560059575566 Q 384.2179418209552 495.8839498213491 411.5130852071054 451.2796911171525 Q 438.8082285932556 406.67543241295584 455.4516087067618 385.3719058676679 Q 472.094988820268 364.06837932238 494.7299857746364 346.09352879979326 Q 517.3649827290049 328.1186782772066 536.0055684561319 320.1298558227236 Q 554.6461541832588 312.1410333682406 561.3035062286613 311.47529816370036 Q 567.9608582740638 310.80956295916013 580.6098271603285 317.46691500456257 Q 593.2587960465933 324.12426704996506 609.2364409555591 341.4333823680115 Q 625.2140858645251 358.74249768605796 635.2001139326289 370.0599961632422 Q 645.1861420007326 381.37749464042645 667.1554037505608 416.6614604810596 Q 689.124665500389 451.9454263216927 695.1162823412512 481.2377753214637 Q 701.1078991821134 510.5301243212346 709.0967216365964 540.4882085255458 Q 717.0855440910793 570.446292729857 707.7652512275158 589.7526136615242 Q 698.4449583639524 609.0589345931913 689.7904007049292 616.382021843134 Q 681.135843045906 623.7051090930768 651.843494046135 631.0281963430195 Q 622.5511450463641 638.3512835929623 584.6042383875699 640.348489206583 Q 546.6573317287758 642.3456948202038 526.6852755925684 640.348489206583 Q 506.7132194563609 638.3512835929623 477.42087045658997 627.6995203203184 Q 448.12852145681904 617.0477570476744 427.49073011607135 601.7358473432487 Q 406.85293877532365 586.423937638823 402.1927923435419 577.1036447752595 Q 397.5326459117602 567.783351911696 400.19558672992116 545.1483549573275 Q 402.8585275480822 522.5133580029591 410.8473500025651 505.86997788945285 Q 418.8361724570481 489.22659777594663 448.12852145681904 450.61395591261225 Q 477.42087045659 412.0013140492779 502.7188082291195 386.0376410722082 Q 528.0167460016489 360.07396809513847 539.3342444788332 352.75088084519575 Q 550.6517429560173 345.42779359525304 565.2979174559027 342.7648527770921 Q 579.9440919557883 340.10191195893105 590.5958552284322 344.0963231861725 Q 601.2476185010762 348.090734413414 607.9049705464787 353.416616049736 Q 614.5623225918812 358.74249768605796 631.2057027053874 376.7173482086447 Q 647.8490828188935 394.6921987312314 667.821138955101 429.9761645718645 Q 687.7931950913085 465.2601304124977 698.4449583639524 491.88953859410765 Q 709.0967216365964 518.5189467757176 719.0827497047002 552.4714422072702 Q 729.068777772804 586.423937638823 722.4114257274015 609.0589345931913 Q 715.754073681999 631.6939315475597 710.428192045677 639.0170187975025 Q 705.1023104093549 646.3401060474453 680.4701078413657 655.6603989110088 Q 655.8379052733765 664.9806917745723 644.5204067961922 666.3121621836527 Q 633.2029083190081 667.6436325927332 601.2476185010762 668.9751030018137 Q 569.2923286831442 670.3065734108942 520.6936587517062 663.6492213654917 Q 472.094988820268 656.9918693200893 453.454403093141 651.6659876837673 Q 434.81381736601406 646.3401060474453 399.52985152538093 627.0337851157781 Q 364.2458856847478 607.7274641841109 354.25985761664407 595.7442305023865 Q 344.27382954854033 583.760996820662 332.9563310713561 560.4602646617532 Q 321.6388325941719 537.1595325028445 328.29618463957434 496.5496850258894 Q 334.9535366849768 455.93983754893424 344.93956475308056 435.30204620818654 Q 354.9255928211843 414.66425486743884 389.5438234572772 371.3914665723227 Q 424.1620540933701 328.1186782772066 446.7970510477386 312.14103336824064 Q 469.432048002107 296.16338845927464 478.08660566113025 294.1661828456539 Q 486.7411633201535 292.16897723203317 498.72439700187795 290.17177161841244 Q 510.7076306836024 288.17456600479164 524.0223347744073 294.83191805019413 Q 537.3370388652123 301.4892700955966 545.3258613196954 306.8151517319186 Q 553.3146837741783 312.1410333682406 572.6210047058455 336.1075007316895 Q 591.9273256375127 360.07396809513847 616.5595282055019 397.35513954939233 Q 641.1917307734911 434.63631100364626 647.1833476143534 449.948220708072 Q 653.1749644552156 465.2601304124977 657.8351108869973 494.5524794122686 Q 662.4952573187791 523.8448284120395 659.832316500618 535.1623268892238 Q 657.169375682457 546.479825366408 641.8574659780313 565.7861462980752 Q 626.5455562736056 585.0924672297424 605.2420297283177 593.7470248887656 Q 583.9385031830298 602.4015825477888 571.2895342967649 603.7330529568694 Q 558.6405654105002 605.0645233659499 528.0167460016488 603.0673177523291 Q 497.39292659279744 601.0701121387084 458.780284729463 589.7526136615243 Q 420.16764286612863 578.43511518434 404.8557331617029 568.4490871162362 Q 389.5438234572772 558.4630590481324 371.56897293469046 540.4882085255458 Q 353.5941224121038 522.5133580029591 346.93677036670135 515.1902707530164 Q 340.27941832129886 507.86718350307365 336.9507422985976 483.9007161396247 Q 333.6220662758964 459.93424877617576 343.60809434400005 437.96498702634756 Q 353.5941224121038 415.99572527651935 364.2458856847478 402.68102118571437 Q 374.89764895739177 389.3663170949094 399.52985152538093 371.3914665723227 Q 424.1620540933701 353.41661604973604 444.7998454341178 342.7648527770921 Q 465.4376367748655 332.11308950444806 474.0921944338887 331.44735429990783 Q 482.74675209291195 330.78161909536755 500.7216026154987 335.4417655271493 Q 518.6964531380854 340.10191195893105 543.3286557060746 354.08235125427626 Q 567.9608582740638 368.06279054962147 579.2783567512479 378.71455382226543 Q 590.5958552284321 389.3663170949094 618.5567338191227 421.32160691284133 Q 646.5176124098131 453.2768967307733 659.832316500618 469.2545416397392 Q 673.147020591423 485.23218654870516 695.1162823412512 513.8588003439359 Q 717.0855440910793 542.4854141391666 724.4086313410221 561.1259998662935 Q 731.7317185909649 579.7665855934204 733.0631890000453 588.4211432524436 Q 734.3946594091258 597.0757009114668 727.7373073637233 608.393199388651 Q 721.0799553183208 619.7106978658353 701.1078991821134 627.0337851157781 Q 681.135843045906 634.3568723657208 661.8295221142388 636.3540779793416 Q 642.5232011825716 638.3512835929623 615.8937930009618 637.685548388422 Q 589.2643848193518 637.0198131838818 571.9552695013053 634.3568723657207 Q 554.6461541832588 631.6939315475597 527.3510107971085 623.0393738885366 Q 500.0558674109584 614.3848162295134 485.40969291107297 603.7330529568694 Q 470.76351841118753 593.0812896842253 466.76910718394606 586.4239376388228 Q 462.77469595670453 579.7665855934204 462.77469595670453 561.1259998662935 Q 462.77469595670453 542.4854141391666 477.42087045659 515.1902707530164 Q 492.06704495647546 487.8951273668662 499.3901322064182 477.2433640942222 Q 506.7132194563609 466.5916008215782 522.6908643653269 450.61395591261225 Q 538.6685092742928 434.63631100364626 549.3202725469368 431.9733701854853 Q 559.9720358195808 429.31042936732433 565.2979174559027 429.31042936732433 Q 570.6237990922248 429.31042936732433 582.6070327739492 436.63351661726705 Q 594.5902664556737 443.95660386720976 607.2392353419384 455.274102344394 Q 619.8882042282031 466.5916008215782 641.1917307734911 499.8783610485906 Q 662.4952573187791 533.165121275603 683.1330486595267 573.109233548018 Q 703.7708400002743 613.0533458204329 703.7708400002743 627.6995203203184 Q 703.7708400002743 642.3456948202038 697.7792231594121 657.6576045246295 Q 691.7876063185499 672.9695142290552 675.1442262050438 676.9639254562967 Q 658.5008460915376 680.9583366835382 654.5064348642961 676.9639254562967 Q 650.5120236370547 672.9695142290552 647.8490828188936 664.9806917745723 Q 645.1861420007326 656.9918693200893 645.1861420007326 647.0058412519855 Q 645.1861420007326 637.0198131838818 651.1777588415948 613.0533458204328 Q 657.169375682457 589.0868784569839 662.4952573187791 577.1036447752595 Q 667.821138955101 565.120411093535 675.809961409584 548.4770309800288 Q 683.798783864067 531.8336508665226 688.4589302958487 521.1818875938786 Q 693.1190767276305 510.5301243212346 694.450547136711 506.5357130939931 Q 695.7820175457914 502.5413018667516 699.1106935684927 499.87836104859065 Q 702.439369591194 497.2154202304297 702.439369591194 497.8811554349699 Q 702.439369591194 498.54689063951014 701.7736343866537 499.2126258440504 L 701.0078991821134 499.97836104859067" stroke-linecap="round" />
</g>
<g transform="matrix(1 0 0 1 493.99 491.07)"  >
<path style="stroke: rgb(211,31,10); stroke-width: 100; stroke-dasharray: none; stroke-linecap: round; stroke-dashoffset: 0; stroke-linejoin: round; stroke-miterlimit: 10; fill: none; fill-rule: nonzero; opacity: 1;" vector-effect="non-scaling-stroke"  transform=" translate(-543.99, -541.07)" d="M 638.42878995533 305.4836813228381 Q 638.52878995533 305.4836813228381 639.1945251598703 306.1494165273783 Q 639.8602603644106 306.8151517319186 641.8574659780313 306.8151517319186 Q 643.854671591652 306.8151517319186 655.8379052733765 308.81235734553934 Q 667.821138955101 310.80956295916013 674.4784910005035 312.14103336824064 Q 681.135843045906 313.4725037773211 693.7848119321707 314.8039741864016 Q 706.4337808184355 316.1354445954821 713.0911328638379 317.46691500456257 Q 719.7484849092403 318.7983854136431 730.4002481818843 319.4641206181833 Q 741.0520114545284 320.1298558227236 749.0408339090113 320.79559102726387 Q 757.0296563634943 321.4613262318041 761.0240675907357 321.4613262318041 Q 765.0184788179772 321.4613262318041 769.678625249759 321.4613262318041 Q 774.3387716815407 321.4613262318041 777.667447704242 322.1270614363443 Q 780.9961237269433 322.7927966408846 781.6618589314835 322.7927966408846 Q 782.3275941360238 322.7927966408846 782.3275941360238 323.45853184542483 Q 782.3275941360238 324.12426704996506 782.9933293405641 324.79000225450534 Q 783.6590645451042 325.45573745904557 783.6590645451042 326.7872078681261 Q 783.6590645451042 328.1186782772066 783.6590645451042 329.4501486862871 Q 783.6590645451042 330.78161909536755 784.3247997496444 331.44735429990783 Q 784.9905349541847 332.11308950444806 786.3220053632651 333.44455991352856 Q 787.6534757723457 334.7760303226091 788.9849461814262 338.1047063453103 Q 790.3164165905066 341.4333823680115 791.6478869995872 344.0963231861725 Q 792.9793574086677 346.75926400433355 794.3108278177483 351.4194104361153 Q 795.6422982268288 356.079556867897 795.6422982268288 358.74249768605796 Q 795.6422982268288 361.405438504219 794.9765630222885 366.73132014054096 Q 794.3108278177483 372.05720177686294 794.9765630222885 378.04881861772515 Q 795.6422982268288 384.0404354585874 795.6422982268288 386.7033762767484 Q 795.6422982268288 389.3663170949094 794.3108278177483 398.0208747539326 Q 792.9793574086677 406.67543241295584 791.6478869995872 412.6670492538181 Q 790.3164165905066 418.65866609468037 790.3164165905066 423.3188125264621 Q 790.3164165905066 427.9789589582438 788.9849461814262 433.3048405945658 Q 787.6534757723457 438.6307222308878 786.9877405678055 447.95101509445124 Q 786.3220053632652 457.27130795801475 784.9905349541848 460.599983980716 Q 783.6590645451042 463.92866000341724 782.9933293405641 472.58321766244046 Q 782.3275941360238 481.2377753214637 780.9961237269433 484.56645134416493 Q 779.6646533178628 487.8951273668662 777.667447704242 497.8811554349699 Q 775.6702420906213 507.86718350307365 775.6702420906213 516.5217411620969 Q 775.6702420906213 525.1762988211201 775.6702420906213 528.5049748438214 Q 775.6702420906213 531.8336508665226 775.004506886081 542.4854141391666 Q 774.3387716815407 553.1371774118105 773.6730364770006 557.7973238435923 Q 773.0073012724603 562.457470275374 774.3387716815407 573.109233548018 Q 775.6702420906213 583.760996820662 776.3359772951615 591.0840840706046 Q 777.0017124997016 598.4071713205474 777.0017124997016 604.3987881614096 Q 777.0017124997016 610.3904050022718 775.6702420906212 612.3876106158925 Q 774.3387716815407 614.3848162295134 774.3387716815407 615.7162866385938 Q 774.3387716815407 617.0477570476744 773.6730364770006 617.7134922522146 Q 773.0073012724603 618.3792274567547 772.34156606792 609.7246697977316 Q 771.6758308633798 601.0701121387084 771.0100956588395 592.4155544796852 Q 770.3443604542992 583.760996820662 769.0128900452188 574.4407039570985 Q 767.6814196361383 565.120411093535 765.0184788179773 557.1315886390521 Q 762.3555379998163 549.142766184569 759.6925971816553 523.1790932074994 Q 757.0296563634943 497.2154202304297 757.0296563634943 481.90351052600397 Q 757.0296563634943 466.5916008215782 755.0324507498735 460.59998398071593 Q 753.0352451362528 454.6083671398537 748.375098704471 438.6307222308878 Q 743.7149522726893 422.65307732192184 741.0520114545284 417.9929308901401 Q 738.3890706363674 413.33278445835833 734.3946594091258 402.0152859811741 Q 730.4002481818843 390.6977875039899 729.0687777728039 384.04043545858747 Q 727.7373073637234 377.383083413185 727.0715721591831 375.38587779956424 Q 726.4058369546428 373.38867218594345 725.7401017501027 372.7229369814032 Q 725.0743665455624 372.05720177686294 723.7428961364819 372.7229369814032 Q 722.4114257274014 373.38867218594345 721.0799553183208 373.38867218594345 Q 719.7484849092403 373.38867218594345 718.4170145001599 373.38867218594345 Q 717.0855440910793 373.38867218594345 715.7540736819989 372.7229369814032 Q 714.4226032729184 372.05720177686294 712.4253976592977 371.3914665723227 Q 710.428192045677 370.7257313677825 708.4309864320562 370.7257313677825 Q 706.4337808184355 370.7257313677825 705.1023104093549 370.0599961632422 Q 703.7708400002743 369.394260958702 701.1078991821134 367.3970553450812 Q 698.4449583639524 365.39984973146045 695.7820175457914 364.06837932238 Q 693.1190767276305 362.7369089132995 691.7876063185499 361.405438504219 Q 690.4561359094694 360.07396809513847 689.7904007049292 360.07396809513847 Q 689.124665500389 360.07396809513847 689.7904007049292 360.7397032996787 Q 690.4561359094694 361.405438504219 691.7876063185499 364.06837932238 Q 693.1190767276305 366.73132014054096 700.4421639775733 374.0544073904837 Q 707.7652512275159 381.37749464042645 711.7596624547575 385.3719058676679 Q 715.754073681999 389.3663170949094 724.4086313410221 396.68940434485216 Q 733.0631890000453 404.0124915947949 741.7177466590686 410.00410843565714 Q 750.3723043180919 415.99572527651935 753.7009803407931 418.65866609468037 Q 757.0296563634943 421.32160691284133 763.6870084088968 431.97337018548535 Q 770.3443604542992 442.6251334581293 773.0073012724603 453.9426319353135 Q 775.6702420906213 465.2601304124977 775.6702420906213 471.9174824579002 Q 775.6702420906213 478.57483450330267 778.3331829087823 491.88953859410765 Q 780.9961237269433 505.20424268491263 780.9961237269433 511.8615947303151 Q 780.9961237269433 518.5189467757176 780.9961237269433 530.5021804574421 Q 780.9961237269433 542.4854141391666 781.6618589314835 553.8029126163508 Q 782.3275941360238 565.120411093535 781.6618589314835 571.7777631389375 Q 780.9961237269433 578.43511518434 781.6618589314835 595.7442305023865 Q 782.3275941360238 613.0533458204329 782.3275941360238 628.3652555248586 Q 782.3275941360238 643.6771652292844 778.9989181133226 649.6687820701466 Q 775.6702420906213 655.6603989110088 775.004506886081 662.9834861609515 Q 774.3387716815407 670.3065734108942 774.3387716815407 674.3009846381358 Q 774.3387716815407 678.2953958653773 773.6730364770006 679.6268662744577 Q 773.0073012724603 680.9583366835382 772.34156606792 684.2870127062395 Q 771.6758308633798 687.6156887289407 770.3443604542992 689.6128943425615 Q 769.0128900452188 691.6100999561822 768.3471548406785 693.607305569803 Q 767.6814196361383 695.6045111834237 766.3499492270578 698.9331872061249 Q 765.0184788179772 702.2618632288261 765.0184788179772 702.9275984333664 Q 765.0184788179772 703.5933336379067 765.0184788179772 704.9248040469871 Q 765.0184788179772 706.2562744560676 765.0184788179772 710.250685683309 Q 765.0184788179772 714.2450969105506 764.352743613437 714.9108321150909 Q 763.6870084088968 715.5765673196311 763.6870084088968 716.2423025241714 Q 763.6870084088968 716.9080377287116 763.6870084088968 717.5737729332518 Q 763.6870084088968 718.2395081377921 763.0212732043565 720.2367137514128 Q 762.3555379998163 722.2339193650336 761.689802795276 726.2283305922751 Q 761.0240675907357 730.2227418195166 761.0240675907357 734.2171530467581 Q 761.0240675907357 738.2115642739996 761.0240675907357 740.8745050921606 Q 761.0240675907357 743.5374459103216 761.0240675907357 748.8633275466435 Q 761.0240675907357 754.1892091829654 760.3583323861956 754.1892091829654 Q 759.6925971816553 754.1892091829654 759.6925971816553 754.8549443875057 Q 759.6925971816553 755.520679592046 759.6925971816553 756.1864147965862 Q 759.6925971816553 756.8521500011265 759.6925971816553 757.5178852056667 Q 759.6925971816553 758.1836204102069 760.3583323861956 759.5150908192875 Q 761.0240675907357 760.846561228368 761.0240675907357 761.5122964329082 Q 761.0240675907357 762.1780316374485 761.689802795276 764.8409724556095 Q 762.3555379998163 767.5039132737704 761.689802795276 767.5039132737704 Q 761.0240675907357 767.5039132737704 759.6925971816553 769.5011188873912 Q 758.3611267725748 771.4983245010119 757.6953915680346 771.4983245010119 Q 757.0296563634943 771.4983245010119 752.3695099317125 772.8297949100925 Q 747.7093634999308 774.161265319173 745.71215788631 774.8270005237132 Q 743.7149522726893 775.4927357282535 739.0548058409075 775.4927357282535 Q 734.3946594091258 775.4927357282535 726.4058369546428 776.1584709327938 Q 718.4170145001599 776.8242061373339 712.4253976592977 776.1584709327938 Q 706.4337808184355 775.4927357282535 694.450547136711 774.8270005237132 Q 682.4673134549864 774.161265319173 673.1470205914229 774.8270005237132 Q 663.8267277278595 775.4927357282535 659.1665812960778 775.4927357282535 Q 654.5064348642961 775.4927357282535 644.5204067961923 775.4927357282535 Q 634.5343787280885 775.4927357282535 630.5399675008471 775.4927357282535 Q 626.5455562736056 775.4927357282535 617.8909986145824 775.4927357282535 Q 609.2364409555591 775.4927357282535 599.9161480919956 775.4927357282535 Q 590.5958552284321 775.4927357282535 585.9357087966505 774.8270005237132 Q 581.2755623648687 774.161265319173 570.6237990922248 773.4955301146327 Q 559.9720358195808 772.8297949100925 549.986007751477 772.1640597055522 Q 539.9999796833733 771.4983245010119 537.3370388652123 770.8325892964717 Q 534.6740980470513 770.1668540919314 527.3510107971085 768.835383682851 Q 520.0279235471659 767.5039132737704 516.6992475244647 767.5039132737704 Q 513.3705715017634 767.5039132737704 508.0446898654414 767.5039132737704 Q 502.7188082291194 767.5039132737704 494.0642505700962 767.5039132737704 Q 485.40969291107297 767.5039132737704 481.4152816838315 766.8381780692303 Q 477.42087045659 766.17244286469 470.09778320664725 766.17244286469 Q 462.77469595670453 766.17244286469 457.44881432038255 766.17244286469 Q 452.1229326840606 766.17244286469 448.12852145681904 766.17244286469 Q 444.1341102295776 766.17244286469 439.4739637977958 766.8381780692303 Q 434.81381736601406 767.5039132737704 428.1564653206116 766.8381780692303 Q 421.49911327520914 766.17244286469 418.1704372525079 765.5067076601497 Q 414.84176122980665 764.8409724556095 405.5214683662432 764.8409724556095 Q 396.2011755026797 764.8409724556095 392.2067642754382 764.1752372510692 Q 388.21235304819675 763.509502046529 380.889265798254 762.8437668419888 Q 373.56617854831126 762.1780316374485 366.24309129836854 762.1780316374485 Q 358.92000404842577 762.1780316374485 356.25706323026475 762.1780316374485 Q 353.5941224121038 762.1780316374485 348.9339759803221 761.5122964329082 Q 344.27382954854033 760.846561228368 340.9451535258391 760.1808260238278 Q 337.61647750313784 759.5150908192875 334.9535366849768 758.8493556147472 Q 332.29059586681586 758.1836204102069 329.6276550486549 757.5178852056667 Q 326.9647142304939 756.8521500011265 323.63603820779264 756.8521500011265 Q 320.3073621850914 756.8521500011265 318.9758917760109 756.8521500011265 Q 317.6444213669304 756.8521500011265 316.3129509578499 756.8521500011265 Q 314.9814805487694 756.8521500011265 314.3157453442292 756.8521500011265 Q 313.6500101396889 756.8521500011265 312.3185397306084 757.5178852056667 Q 310.9870693215279 758.1836204102069 312.9842749351486 755.520679592046 Q 314.9814805487694 752.857738773885 313.6500101396889 748.8633275466434 Q 312.3185397306084 744.8689163194019 311.65280452606817 740.8745050921605 Q 310.9870693215279 736.880093864919 310.9870693215279 732.8856826376775 Q 310.9870693215279 728.891271410436 310.32133411698766 721.5681841604933 Q 309.65559891244743 714.2450969105506 308.98986370790715 711.5821560923896 Q 308.3241285033669 708.9192152742287 308.3241285033669 703.5933336379067 Q 308.3241285033669 698.2674520015846 308.3241285033669 696.9359815925042 Q 308.3241285033669 695.6045111834237 308.3241285033669 690.944364751642 Q 308.3241285033669 686.2842183198602 307.6583932988267 681.6240718880784 Q 306.9926580942864 676.9639254562967 306.32692288974613 675.6324550472161 Q 305.6611876852059 674.3009846381357 305.6611876852059 670.3065734108942 Q 305.6611876852059 666.3121621836527 305.6611876852059 664.9806917745723 Q 305.6611876852059 663.6492213654917 305.6611876852059 662.9834861609515 Q 305.6611876852059 662.3177509564113 304.9954524806657 661.652015751871 Q 304.32971727612545 660.9862805473307 303.6639820715852 659.6548101382502 Q 302.99824686704494 658.3233397291697 302.33251166250466 656.9918693200892 Q 301.66677645796443 655.6603989110088 299.6695708443437 652.9974580928478 Q 297.67236523072296 650.3345172746867 297.00663002618273 648.337311661066 Q 296.34089482164245 646.3401060474453 295.00942441256194 643.011430024744 Q 293.67795400348143 639.6827540020428 293.67795400348143 639.0170187975025 Q 293.67795400348143 638.3512835929623 293.0122187989412 637.0198131838818 Q 292.346483594401 635.6883427748013 292.346483594401 636.3540779793416 Q 292.346483594401 637.0198131838818 293.0122187989412 638.3512835929623 Q 293.67795400348143 639.6827540020428 294.3436892080217 643.6771652292844 Q 295.00942441256194 647.6715764565258 300.3353060488839 658.9890749337101 Q 305.6611876852059 670.3065734108942 308.32412850336686 677.6296606608369 Q 310.9870693215279 684.9527479107796 318.9758917760109 691.6100999561821 Q 326.9647142304939 698.2674520015846 331.62486066227564 700.2646576152054 Q 336.28500709405733 702.2618632288261 338.9479479122183 702.2618632288261 Q 341.6108887303793 702.2618632288261 348.2682407757818 701.5961280242859 Q 354.9255928211843 700.9303928197456 358.92000404842577 699.5989224106652 Q 362.9144152756673 698.2674520015846 370.23750252561 695.6045111834236 Q 377.5605897755528 692.9415703652626 386.88088263911624 690.9443647516418 Q 396.2011755026797 688.9471591380211 399.52985152538093 688.2814239334809 Q 402.8585275480822 687.6156887289407 407.51867397986393 687.6156887289407 Q 412.1788204116457 687.6156887289407 416.17323163888716 688.2814239334809 Q 420.16764286612863 688.9471591380211 420.8333780706689 688.2814239334809 Q 421.49911327520914 687.6156887289407 425.49352450245067 688.2814239334809 Q 429.48793572969214 688.9471591380211 430.8194061387726 688.2814239334809 Q 432.1508765478531 687.6156887289407 437.4767581841751 687.6156887289407 Q 442.8026398204971 687.6156887289407 449.4599918658996 687.6156887289407 Q 456.11734391130204 687.6156887289407 458.780284729463 687.6156887289407 Q 461.443225547624 687.6156887289407 468.76631279756674 688.2814239334809 Q 476.08940004750946 688.9471591380211 480.083811274751 689.6128943425614 Q 484.0782225019925 690.2786295471017 485.40969291107297 690.2786295471017 Q 486.7411633201535 690.2786295471017 488.072633729234 690.2786295471017 Q 489.40410413831444 690.2786295471017 493.3985153655559 690.944364751642 Q 497.39292659279744 691.6100999561822 499.39013220641823 691.6100999561822 Q 501.38733782003897 691.6100999561822 512.0391010926829 691.6100999561822 Q 522.6908643653269 691.6100999561822 535.3398332515916 692.9415703652627 Q 547.9888021378563 694.2730407743431 550.6517429560173 694.9387759788834 Q 553.3146837741783 695.6045111834237 562.6349766377418 697.6017167970444 Q 571.9552695013053 699.5989224106652 575.9496807285468 700.2646576152054 Q 579.9440919557883 700.9303928197456 587.9329144102712 702.9275984333664 Q 595.9217368647542 704.9248040469871 603.2448241146969 704.9248040469871 Q 610.5679113646397 704.9248040469871 613.8965873873409 704.9248040469871 Q 617.2252634100421 704.9248040469871 624.5483506599849 705.5905392515274 Q 631.8714379099276 706.2562744560676 635.8658491371691 704.9248040469871 Q 639.8602603644106 703.5933336379067 644.5204067961923 703.5933336379067 Q 649.1805532279741 703.5933336379067 651.8434940461351 703.5933336379067 Q 654.5064348642961 703.5933336379067 655.1721700688363 703.5933336379067 Q 655.8379052733765 703.5933336379067 660.4980517051582 702.9275984333664 Q 665.15819813694 702.2618632288261 666.4896685460205 704.2590688424468 Q 667.821138955101 706.2562744560676 671.8155501823426 708.2534800696883 Q 675.809961409584 710.250685683309 676.4756966141242 710.9164208878493 Q 677.1414318186645 711.5821560923896 677.8071670232048 712.2478912969299 Q 678.472902227745 712.9136265014702 679.1386374322852 713.5793617060103 Q 679.8043726368255 714.2450969105506 681.8015782504463 716.2423025241714 Q 683.798783864067 718.2395081377921 686.461724682228 719.5709785468725 Q 689.124665500389 720.9024489559531 690.4561359094695 722.2339193650336 Q 691.7876063185499 723.565389774114 693.1190767276305 724.8968601831946 Q 694.450547136711 726.2283305922751 695.7820175457914 727.5598010013556 Q 697.113487954872 728.891271410436 699.1106935684927 729.5570066149763 Q 701.1078991821134 730.2227418195166 701.7736343866537 730.8884770240568 Q 702.439369591194 731.5542122285971 706.4337808184355 731.5542122285971 Q 710.428192045677 731.5542122285971 713.7568680683781 732.8856826376775 Q 717.0855440910793 734.2171530467581 721.0799553183208 734.8828882512983 Q 725.0743665455624 735.5486234558385 727.0715721591832 736.2143586603788 L 729.168777772804 736.980093864919" stroke-linecap="round" />
</g>
</svg>